REM DIRINDEX 1\2\4,1\2\5,1\2\6,1\3\7,1\3\8,1\3\9,1\3\10
REM DIRNAME folder01,folder02,folder03,folder04,folder05,folder06,folder07,folder08,folder09,folder10
TITLE ""
FILE "a_43.mp3" MP3
  TRACK 01 AUDIO
    TITLE "0:"
    INDEX 01 00:00:00
  TRACK 02 AUDIO
    TITLE "6:cjc058_1007"
    INDEX 01 00:00:11
  TRACK 03 AUDIO
    TITLE "0:"
    INDEX 01 00:02:63
  TRACK 04 AUDIO
    TITLE "4:cjc058_1008"
    INDEX 01 00:03:33
  TRACK 05 AUDIO
    TITLE "0:"
    INDEX 01 00:04:64
  TRACK 06 AUDIO
    TITLE "5:cjc058_1009"
    INDEX 01 00:05:22
  TRACK 07 AUDIO
    TITLE "0:"
    INDEX 01 00:07:70
  TRACK 08 AUDIO
    TITLE "4:cjc058_1010"
    INDEX 01 00:08:73
  TRACK 09 AUDIO
    TITLE "0:"
    INDEX 01 00:11:09
  TRACK 10 AUDIO
    TITLE "5:cjc058_1011"
    INDEX 01 00:11:39
  TRACK 11 AUDIO
    TITLE "0:"
    INDEX 01 00:14:58
  TRACK 12 AUDIO
    TITLE "4:cjc058_1012"
    INDEX 01 00:15:62
  TRACK 13 AUDIO
    TITLE "0:"
    INDEX 01 00:17:65
  TRACK 14 AUDIO
    TITLE "5:cjc058_1013"
    INDEX 01 00:18:21
  TRACK 15 AUDIO
    TITLE "0:"
    INDEX 01 00:20:47
  TRACK 16 AUDIO
    TITLE "4:cjc058_1014"
    INDEX 01 00:21:51
  TRACK 17 AUDIO
    TITLE "0:"
    INDEX 01 00:23:08
  TRACK 18 AUDIO
    TITLE "5:cjc058_1015"
    INDEX 01 00:23:40
  TRACK 19 AUDIO
    TITLE "0:"
    INDEX 01 00:24:67
  TRACK 20 AUDIO
    TITLE "4:cjc058_1016"
    INDEX 01 00:25:74
  TRACK 21 AUDIO
    TITLE "0:"
    INDEX 01 00:27:32
  TRACK 22 AUDIO
    TITLE "5:cjc058_1017"
    INDEX 01 00:27:65
  TRACK 23 AUDIO
    TITLE "0:"
    INDEX 01 00:30:54
  TRACK 24 AUDIO
    TITLE "4:cjc058_1018"
    INDEX 01 00:31:59
  TRACK 25 AUDIO
    TITLE "0:"
    INDEX 01 00:34:12
  TRACK 26 AUDIO
    TITLE "5:cjc058_1019"
    INDEX 01 00:34:43
  TRACK 27 AUDIO
    TITLE "0:"
    INDEX 01 00:36:56
  TRACK 28 AUDIO
    TITLE "4:cjc058_1020"
    INDEX 01 00:37:63
  TRACK 29 AUDIO
    TITLE "0:"
    INDEX 01 00:39:27
  TRACK 30 AUDIO
    TITLE "5:cjc058_1021"
    INDEX 01 00:39:54
  TRACK 31 AUDIO
    TITLE "0:"
    INDEX 01 00:41:16
  TRACK 32 AUDIO
    TITLE "4:cjc058_1022"
    INDEX 01 00:42:21
  TRACK 33 AUDIO
    TITLE "0:"
    INDEX 01 00:44:42
  TRACK 34 AUDIO
    TITLE "5:cjc058_1023"
    INDEX 01 00:44:71
  TRACK 35 AUDIO
    TITLE "0:"
    INDEX 01 00:47:13
  TRACK 36 AUDIO
    TITLE "4:cjc058_1024"
    INDEX 01 00:48:20
  TRACK 37 AUDIO
    TITLE "0:"
    INDEX 01 00:49:70
  TRACK 38 AUDIO
    TITLE "5:cjc058_1025"
    INDEX 01 00:50:25
  TRACK 39 AUDIO
    TITLE "0:"
    INDEX 01 00:53:13
  TRACK 40 AUDIO
    TITLE "4:cjc058_1026"
    INDEX 01 00:54:19
  TRACK 41 AUDIO
    TITLE "0:"
    INDEX 01 00:56:39
  TRACK 42 AUDIO
    TITLE "5:cjc058_1027"
    INDEX 01 00:56:69
  TRACK 43 AUDIO
    TITLE "0:"
    INDEX 01 00:59:22
  TRACK 44 AUDIO
    TITLE "4:cjc058_1028"
    INDEX 01 01:00:25
  TRACK 45 AUDIO
    TITLE "0:"
    INDEX 01 01:01:70
  TRACK 46 AUDIO
    TITLE "5:cjc058_1029"
    INDEX 01 01:02:28
  TRACK 47 AUDIO
    TITLE "0:"
    INDEX 01 01:05:26
  TRACK 48 AUDIO
    TITLE "4:cjc058_1030"
    INDEX 01 01:06:32
  TRACK 49 AUDIO
    TITLE "0:"
    INDEX 01 01:08:29
  TRACK 50 AUDIO
    TITLE "5:cjc058_1031"
    INDEX 01 01:08:62
  TRACK 51 AUDIO
    TITLE "0:"
    INDEX 01 01:11:07
  TRACK 52 AUDIO
    TITLE "4:cjc058_1032"
    INDEX 01 01:12:13
  TRACK 53 AUDIO
    TITLE "0:"
    INDEX 01 01:14:39
  TRACK 54 AUDIO
    TITLE "5:cjc058_1033"
    INDEX 01 01:14:68
  TRACK 55 AUDIO
    TITLE "0:"
    INDEX 01 01:16:58
  TRACK 56 AUDIO
    TITLE "4:cjc058_1034"
    INDEX 01 01:17:61
  TRACK 57 AUDIO
    TITLE "0:"
    INDEX 01 01:20:26
  TRACK 58 AUDIO
    TITLE "5:cjc058_1035"
    INDEX 01 01:20:59
  TRACK 59 AUDIO
    TITLE "0:"
    INDEX 01 01:22:19
  TRACK 60 AUDIO
    TITLE "4:cjc058_1036"
    INDEX 01 01:23:26
  TRACK 61 AUDIO
    TITLE "0:"
    INDEX 01 01:25:68
  TRACK 62 AUDIO
    TITLE "5:cjc058_1037"
    INDEX 01 01:26:25
  TRACK 63 AUDIO
    TITLE "0:"
    INDEX 01 01:28:41
  TRACK 64 AUDIO
    TITLE "4:cjc058_1038"
    INDEX 01 01:29:41
  TRACK 65 AUDIO
    TITLE "0:"
    INDEX 01 01:32:15
  TRACK 66 AUDIO
    TITLE "5:cjc058_1039"
    INDEX 01 01:32:43
  TRACK 67 AUDIO
    TITLE "0:"
    INDEX 01 01:34:61
  TRACK 68 AUDIO
    TITLE "4:cjc058_1040"
    INDEX 01 01:35:67
  TRACK 69 AUDIO
    TITLE "0:"
    INDEX 01 01:38:59
  TRACK 70 AUDIO
    TITLE "5:cjc058_1041"
    INDEX 01 01:39:15
  TRACK 71 AUDIO
    TITLE "0:"
    INDEX 01 01:40:38
